
<svg width="120" height="120" viewBox="0 0 120 120" xmlns="http://www.w3.org/2000/svg">
  <defs>
    <!-- Gradients -->
    <linearGradient id="primaryGradient" x1="0%" y1="0%" x2="100%" y2="100%">
      <stop offset="0%" style="stop-color:#FF3C38;stop-opacity:1" />
      <stop offset="50%" style="stop-color:#00B8F4;stop-opacity:1" />
      <stop offset="100%" style="stop-color:#A259FF;stop-opacity:1" />
    </linearGradient>
    
    <linearGradient id="secondaryGradient" x1="0%" y1="0%" x2="100%" y2="100%">
      <stop offset="0%" style="stop-color:#00B8F4;stop-opacity:1" />
      <stop offset="100%" style="stop-color:#A259FF;stop-opacity:1" />
    </linearGradient>
    
    <linearGradient id="accentGradient" x1="0%" y1="0%" x2="100%" y2="100%">
      <stop offset="0%" style="stop-color:#A259FF;stop-opacity:1" />
      <stop offset="100%" style="stop-color:#FF3C38;stop-opacity:1" />
    </linearGradient>

    <!-- Glow Effect -->
    <filter id="glow">
      <feGaussianBlur stdDeviation="3" result="coloredBlur"/>
      <feMerge> 
        <feMergeNode in="coloredBlur"/>
        <feMergeNode in="SourceGraphic"/>
      </feMerge>
    </filter>

    <!-- Shadow Effect -->
    <filter id="dropshadow" x="-50%" y="-50%" width="200%" height="200%">
      <feDropShadow dx="0" dy="4" stdDeviation="8" flood-color="#FF3C38" flood-opacity="0.3"/>
    </filter>
  </defs>

  <!-- Background Circle -->
  <circle cx="60" cy="60" r="58" fill="none" stroke="url(#primaryGradient)" stroke-width="2" opacity="0.3"/>
  
  <!-- Outer Ring -->
  <circle cx="60" cy="60" r="50" fill="none" stroke="url(#primaryGradient)" stroke-width="1" opacity="0.2"/>

  <!-- Main Diamond/Forge Shape -->
  <g transform="translate(60, 60)" filter="url(#glow)">
    <!-- Central Diamond -->
    <path d="M 0,-35 L 20,-15 L 20,15 L 0,35 L -20,15 L -20,-15 Z" 
          fill="url(#primaryGradient)" 
          stroke="#FFFFFF" 
          stroke-width="1" 
          opacity="0.9"/>
    
    <!-- Inner Lightning/Forge Element -->
    <path d="M 0,-25 L 12,-8 L -8,-8 L 0,8 L 8,8 L -12,25 L 0,12 Z" 
          fill="#FFFFFF" 
          opacity="0.9"/>
    
    <!-- Side Accent Shapes -->
    <path d="M -35,-10 L -20,-15 L -20,15 L -35,10 Z" 
          fill="url(#secondaryGradient)" 
          opacity="0.8"/>
    
    <path d="M 35,-10 L 20,-15 L 20,15 L 35,10 Z" 
          fill="url(#accentGradient)" 
          opacity="0.8"/>
    
    <!-- Top and Bottom Accents -->
    <path d="M -10,-35 L 10,-35 L 20,-15 L 0,-25 L -20,-15 Z" 
          fill="url(#secondaryGradient)" 
          opacity="0.7"/>
    
    <path d="M -10,35 L 10,35 L 20,15 L 0,25 L -20,15 Z" 
          fill="url(#accentGradient)" 
          opacity="0.7"/>
  </g>

  <!-- Energy Rings -->
  <g opacity="0.4">
    <circle cx="60" cy="60" r="40" fill="none" stroke="#00B8F4" stroke-width="1" stroke-dasharray="5,5">
      <animateTransform attributeName="transform" attributeType="XML" type="rotate" 
                        from="0 60 60" to="360 60 60" dur="8s" repeatCount="indefinite"/>
    </circle>
    
    <circle cx="60" cy="60" r="45" fill="none" stroke="#A259FF" stroke-width="1" stroke-dasharray="8,8">
      <animateTransform attributeName="transform" attributeType="XML" type="rotate" 
                        from="360 60 60" to="0 60 60" dur="12s" repeatCount="indefinite"/>
    </circle>
  </g>

  <!-- Corner Gaming Elements -->
  <g opacity="0.6">
    <!-- Top Left -->
    <rect x="15" y="15" width="8" height="8" fill="#FF3C38" rx="1">
      <animate attributeName="opacity" values="0.6;1;0.6" dur="2s" repeatCount="indefinite"/>
    </rect>
    
    <!-- Top Right -->
    <rect x="97" y="15" width="8" height="8" fill="#00B8F4" rx="1">
      <animate attributeName="opacity" values="1;0.6;1" dur="2s" repeatCount="indefinite"/>
    </rect>
    
    <!-- Bottom Left -->
    <rect x="15" y="97" width="8" height="8" fill="#A259FF" rx="1">
      <animate attributeName="opacity" values="0.6;1;0.6" dur="1.5s" repeatCount="indefinite"/>
    </rect>
    
    <!-- Bottom Right -->
    <rect x="97" y="97" width="8" height="8" fill="#FF3C38" rx="1">
      <animate attributeName="opacity" values="1;0.6;1" dur="1.8s" repeatCount="indefinite"/>
    </rect>
  </g>

  <!-- Subtle Grid Pattern -->
  <defs>
    <pattern id="grid" width="10" height="10" patternUnits="userSpaceOnUse">
      <path d="M 10 0 L 0 0 0 10" fill="none" stroke="#FFFFFF" stroke-width="0.5" opacity="0.1"/>
    </pattern>
  </defs>
  <rect width="120" height="120" fill="url(#grid)"/>

  <!-- Gaming Crosshair Elements -->
  <g opacity="0.3">
    <line x1="60" y1="5" x2="60" y2="25" stroke="#00B8F4" stroke-width="2"/>
    <line x1="60" y1="95" x2="60" y2="115" stroke="#00B8F4" stroke-width="2"/>
    <line x1="5" y1="60" x2="25" y2="60" stroke="#A259FF" stroke-width="2"/>
    <line x1="95" y1="60" x2="115" y2="60" stroke="#A259FF" stroke-width="2"/>
  </g>

  <!-- Text would go below in actual usage -->
  <!-- This SVG represents the iconic CLUTCHFORGE logo symbol -->
</svg>
